<svg id="Layer_1" enable-background="new 0 0 100 100" height="512" viewBox="0 0 100 100" width="512" xmlns="http://www.w3.org/2000/svg"><path d="m90.315 90v-15.891c0-1.104-.896-2-2-2h-9.87c-1.104 0-2 .896-2 2v15.891c0 1.104.896 2 2 2h9.87c1.105 0 2-.896 2-2z"/><path d="m66.062 50.739h-9.871c-1.104 0-2 .896-2 2v37.261c0 1.104.896 2 2 2h9.871c1.105 0 2-.896 2-2v-37.261c0-1.104-.895-2-2-2z"/><path d="m45.809 90v-58.63c0-1.104-.896-2-2-2h-9.871c-1.104 0-2 .896-2 2v58.63c0 1.104.896 2 2 2h9.871c1.104 0 2-.896 2-2z"/><path d="m9.685 90c0 1.104.896 2 2 2h9.87c1.104 0 2-.896 2-2v-80c0-1.104-.896-2-2-2h-9.87c-1.104 0-2 .896-2 2z"/></svg>