<?xml version="1.0" encoding="UTF-8"?>
<svg xmlns="http://www.w3.org/2000/svg" xmlns:xlink="http://www.w3.org/1999/xlink" version="1.1" width="512" height="512" x="0" y="0" viewBox="0 0 34 34" style="enable-background:new 0 0 512 512" xml:space="preserve" class="">
  <g>
    <path d="M29.6 2h-3v3c0 .6-.5 1-1 1s-1-.4-1-1V2h-16v3c0 .6-.5 1-1 1s-1-.4-1-1V2h-3C2.1 2 1 3.3 1 5v3.6h32V5c0-1.7-1.8-3-3.4-3zM1 10.7V29c0 1.8 1.1 3 2.7 3h26c1.6 0 3.4-1.3 3.4-3V10.7zm8.9 16.8H7.5c-.4 0-.8-.3-.8-.8v-2.5c0-.4.3-.8.8-.8H10c.4 0 .8.3.8.8v2.5c-.1.5-.4.8-.9.8zm0-9H7.5c-.4 0-.8-.3-.8-.8v-2.5c0-.4.3-.8.8-.8H10c.4 0 .8.3.8.8v2.5c-.1.5-.4.8-.9.8zm8 9h-2.5c-.4 0-.8-.3-.8-.8v-2.5c0-.4.3-.8.8-.8h2.5c.4 0 .8.3.8.8v2.5c0 .5-.3.8-.8.8zm0-9h-2.5c-.4 0-.8-.3-.8-.8v-2.5c0-.4.3-.8.8-.8h2.5c.4 0 .8.3.8.8v2.5c0 .5-.3.8-.8.8zm8 9h-2.5c-.4 0-.8-.3-.8-.8v-2.5c0-.4.3-.8.8-.8h2.5c.4 0 .8.3.8.8v2.5c0 .5-.3.8-.8.8zm0-9h-2.5c-.4 0-.8-.3-.8-.8v-2.5c0-.4.3-.8.8-.8h2.5c.4 0 .8.3.8.8v2.5c0 .5-.3.8-.8.8z" fill="#ffffff" opacity="1" data-original="#000000" class=""/>
  </g>
</svg>
