<?xml version="1.0" encoding="UTF-8"?>
<svg xmlns="http://www.w3.org/2000/svg" version="1.1" viewBox="0 0 512 512">
  <defs>
    <style>
      .cls-1 {
        fill: #231f20;
      }
    </style>
  </defs>
  <!-- Generator: Adobe Illustrator 28.7.0, SVG Export Plug-In . SVG Version: 1.2.0 Build 136)  -->
  <g>
    <g id="Layer_1">
      <g id="Layer_1-2" data-name="Layer_1">
        <path class="cls-1" d="M316.1,255.8l183-183c16.7-16.7,16.7-43.6,0-60.3-16.7-16.7-43.6-16.7-60.3,0l-183,183L72.9,12.5C56.2-4.2,29.2-4.2,12.6,12.5s-16.7,43.6,0,60.3l183,183L12.6,438.8c-16.7,16.7-16.7,43.6,0,60.3,16.7,16.7,19.3,12.5,30.1,12.5s21.8-4.2,30.1-12.5l183-183,183,183c8.3,8.3,19.1,12.5,30.1,12.5s21.8-4.2,30.1-12.5c16.7-16.7,16.7-43.6,0-60.3l-183-183h0Z"/>
      </g>
    </g>
  </g>
</svg>