<?xml version="1.0" encoding="UTF-8"?>
<svg xmlns="http://www.w3.org/2000/svg" xmlns:xlink="http://www.w3.org/1999/xlink" version="1.1" width="512" height="512" x="0" y="0" viewBox="0 0 100 100" style="enable-background:new 0 0 512 512" xml:space="preserve" class="">
  <g>
    <path d="M90.315 90V74.109a2 2 0 0 0-2-2h-9.87a2 2 0 0 0-2 2V90a2 2 0 0 0 2 2h9.87a2 2 0 0 0 2-2zM66.062 50.739h-9.871a2 2 0 0 0-2 2V90a2 2 0 0 0 2 2h9.871a2 2 0 0 0 2-2V52.739a2 2 0 0 0-2-2zM45.809 90V31.37a2 2 0 0 0-2-2h-9.871a2 2 0 0 0-2 2V90a2 2 0 0 0 2 2h9.871a2 2 0 0 0 2-2zM9.685 90a2 2 0 0 0 2 2h9.87a2 2 0 0 0 2-2V10a2 2 0 0 0-2-2h-9.87a2 2 0 0 0-2 2z" fill="#ffffff" opacity="1" data-original="#000000"/>
  </g>
</svg>
