<?xml version="1.0" encoding="UTF-8"?>
<svg xmlns="http://www.w3.org/2000/svg" xmlns:xlink="http://www.w3.org/1999/xlink" version="1.1" width="512" height="512" x="0" y="0" viewBox="0 0 46 60" style="enable-background:new 0 0 512 512" xml:space="preserve" class="">
  <g>
    <g data-name="Layer 2">
      <path d="M43 54h-2.33v-7.58a15.74 15.74 0 0 0-7.05-13.14L28.67 30l4.95-3.28a15.74 15.74 0 0 0 7.05-13.14V6H43a3 3 0 0 0 0-6H3a3 3 0 0 0 0 6h2.81v7.58a15.72 15.72 0 0 0 7.05 13.14L17.81 30l-4.95 3.28a15.72 15.72 0 0 0-7 13.14V54H3a3 3 0 0 0 0 6h40a3 3 0 0 0 0-6zm-31.19-7.58a9.76 9.76 0 0 1 4.36-8.14l7.07-4.68 7.06 4.68a9.77 9.77 0 0 1 4.37 8.14V54H11.81z" data-name="Layer 1" fill="#ffffff" opacity="1" data-original="#000000" class=""/>
    </g>
  </g>
</svg>
