<?xml version="1.0" encoding="UTF-8"?>
<svg xmlns="http://www.w3.org/2000/svg" xmlns:xlink="http://www.w3.org/1999/xlink" version="1.1" width="512" height="512" x="0" y="0" viewBox="0 0 66 66" style="enable-background:new 0 0 512 512" xml:space="preserve" class="">
  <g>
    <path d="M54 1c-5.8 0-10.5 4.7-10.5 10.5 0 5.5 8.8 14.6 9.8 15.6.3.4 1 .4 1.4 0 1-1 9.8-10.1 9.8-15.6C64.6 5.7 59.8 1 54 1zm0 13.7c-2.3 0-4.1-1.8-4.1-4.1s1.8-4.1 4.1-4.1 4.1 1.8 4.1 4.1-1.8 4.1-4.1 4.1zM12 34.7c-5.8 0-10.5 4.7-10.5 10.5 0 5.5 8.8 14.6 9.8 15.6.4.4 1 .4 1.4 0 1-1 9.8-10.1 9.8-15.6 0-5.8-4.7-10.5-10.5-10.5zm0 13.7c-2.3 0-4.1-1.8-4.1-4.1s1.8-4.1 4.1-4.1 4.1 1.8 4.1 4.1-1.9 4.1-4.1 4.1z" fill="#d4d4d4" opacity="1" data-original="#000000"/>
    <path d="M58.1 53c0 2.7-2.2 4.9-4.9 4.9-.4 0-.7 0-1.1-.1-2 2.1-4.8 3.3-7.7 3.3h-6.7c-.4 2.2-2.4 3.9-4.7 3.9s-4.3-1.7-4.8-3.9h-13c.5-.6 1.1-1.2 1.8-2h11.3c.5-2.2 2.4-3.9 4.8-3.9s4.3 1.7 4.8 3.9h6.7c2.2 0 4.2-.8 5.8-2.3-1.2-.9-1.9-2.3-1.9-3.8 0-2.6 2-4.7 4.5-4.9-.7-4-4.2-7-8.4-7-3.9-.4-8.3 1.2-12.2-2.7-.5.2-1.1.3-1.7.3-2.7 0-4.9-2.2-4.9-4.9 0-2.6 2-4.7 4.6-4.9 1.1-2.2 3.3-3.6 5.8-3.6h13c.7.8 1.3 1.5 1.8 2H36.1c-1.5 0-2.8.7-3.7 1.9 1.8.7 3.1 2.5 3.1 4.5 0 1.4-.5 2.6-1.4 3.5 3.1 2.8 6.3 1.6 10.5 1.8 5.4 0 9.8 4 10.5 9.3 1.7.8 3 2.6 3 4.7z" fill="#d4d4d4" opacity="1" data-original="#000000"/>
  </g>
</svg>
