<?xml version="1.0" encoding="UTF-8"?>
<svg xmlns="http://www.w3.org/2000/svg" xmlns:xlink="http://www.w3.org/1999/xlink" version="1.1" width="512" height="512" x="0" y="0" viewBox="0 0 512 512" style="enable-background:new 0 0 512 512" xml:space="preserve" class="">
  <g>
    <path d="M7.029 46.541A24 24 0 0 1 40.971 12.6L256 227.629 471.029 12.6a24 24 0 0 1 33.942 33.941l-232 232a24 24 0 0 1-33.942 0zm464 186.918L256 448.488 40.971 233.459A24 24 0 0 0 7.029 267.4l232 232a24 24 0 0 0 33.942 0l232-232a24 24 0 0 0-33.942-33.941z" fill="#ffffff" opacity="1" data-original="#000000" class=""/>
  </g>
</svg>
