<?xml version="1.0" encoding="UTF-8"?>
<svg xmlns="http://www.w3.org/2000/svg" version="1.1" viewBox="0 0 512 94.7">
  <defs>
    <style>
      .cls-1 {
        fill: #ffe100;
      }
    </style>
  </defs>
  <!-- Generator: Adobe Illustrator 28.7.1, SVG Export Plug-In . SVG Version: 1.2.0 Build 142)  -->
  <g>
    <g id="Layer_1">
      <path class="cls-1" d="M30,57l-11.5,35.3,30-21.8,30,21.8-11.4-35.3,30-21.8h-37L48.5,0l-11.5,35.2H0l30,21.8ZM163.7,35.2L152.3,0l-11.5,35.2h-37.1l30,21.8-11.5,35.3,30-21.8,30,21.8-11.5-35.3,30-21.8h-37.1ZM267.5,35.2L256,0l-11.5,35.2h-37.1l30,21.8-11.5,35.3,30-21.8,30,21.8-11.5-35.3,30-21.8h-37.1ZM371.2,35.2L359.7,0l-11.5,35.2h-37.1l30,21.8-11.5,35.3,30-21.8,30,21.8-11.5-35.3,30-21.8h-37.1ZM474.9,35.2L463.5,0l-11.5,35.2h-37l30,21.8-11.5,35.3,30-21.8,30,21.8-11.5-35.3,30-21.8h-37.1Z"/>
    </g>
  </g>
</svg>