<svg xmlns="http://www.w3.org/2000/svg" version="1.1" xmlns:xlink="http://www.w3.org/1999/xlink" width="512" height="512" x="0" y="0" viewBox="0 0 98.566 98.566" style="enable-background:new 0 0 512 512" xml:space="preserve" class=""><g><path d="M60.401 20.996c2.751.389 5.445 1.08 8.107 1.898a55.476 55.476 0 0 1 13.156 5.998c.287.178.67.291 1.008.291 4.844.02 9.686.013 14.526.017.39 0 .778.041 1.167.063 0 .095.014.135-.002.157-.226.348-.455.691-.682 1.038-1.643 2.52-3.047 5.156-3.876 8.07-.09.313-.109.575.103.882 4.312 6.192 5.688 12.99 3.886 20.318-1.58 6.427-5.264 11.438-10.862 14.986-4.001 2.537-8.421 3.745-13.143 3.771a22.938 22.938 0 0 1-5.896-.757c-4.722-1.225-8.77-3.579-12.106-7.144-.44-.468-.854-.957-1.323-1.486-1.764 2.629-3.5 5.215-5.278 7.869l-5.191-7.758c-.118.062-.152.069-.175.091a.805.805 0 0 0-.103.108c-4.035 4.765-9.111 7.686-15.295 8.663-3.44.545-6.847.349-10.188-.572-4.735-1.301-8.759-3.799-12.01-7.485C3.047 66.41 1.071 62.226.329 57.469c-.849-4.44.185-8.721.443-9.76.748-3.02 2.052-5.793 3.842-8.343.126-.181.17-.501.11-.717-.73-2.677-1.988-5.112-3.461-7.444-.374-.593-.822-1.142-1.236-1.711v-.198c.083.01.165.026.246.026 4.956.002 9.911.004 14.867-.006.216 0 .456-.089.64-.207 3.482-2.234 7.192-4.004 11.09-5.382a60.266 60.266 0 0 1 8.608-2.333 68.96 68.96 0 0 1 8.562-1.124c7.019-.54 12.629.203 16.361.726zm-6.213 32.731c0 10.883 8.83 19.774 19.674 19.732 10.885-.039 19.675-8.68 19.667-19.683-.008-11.339-9.206-19.863-20.089-19.642-10.744.223-19.154 8.883-19.252 19.593zM24.677 34.059c-10.586-.092-19.816 8.743-19.631 19.997.172 10.495 8.822 19.392 19.851 19.297 10.784-.092 19.452-8.898 19.472-19.562a19.626 19.626 0 0 0-19.692-19.732zm.976-5.134c5.98.365 11.233 2.449 15.671 6.485 4.429 4.028 7.024 9.053 7.967 14.962.97-5.839 3.497-10.817 7.843-14.805 4.353-3.992 9.536-6.087 15.418-6.53-6.98-3.103-14.34-4.421-21.916-4.567-8.61-.169-16.985 1.1-24.983 4.455z" fill="#339933" opacity="1" data-original="#000000" class=""></path><path d="M73.822 41.311c6.735-.011 12.19 5.415 12.19 12.143 0 6.754-5.362 11.975-11.688 12.216-7.065.271-12.718-5.358-12.716-12.186.006-6.906 5.699-12.287 12.214-12.173zm7.944 12.173c-.003-4.39-3.552-7.958-7.912-7.958-4.41 0-8 3.549-8.018 7.926-.016 4.358 3.592 7.984 7.961 7.996 4.376.017 7.971-3.582 7.969-7.964zM24.417 41.311c6.731-.007 12.194 5.429 12.177 12.156-.019 6.809-5.386 11.916-11.601 12.199-7.093.324-12.816-5.33-12.803-12.195.014-6.955 5.746-12.276 12.227-12.16zm7.935 12.146c-.013-4.417-3.585-7.938-8.044-7.93-4.301.008-7.905 3.638-7.895 7.955.011 4.367 3.611 7.958 7.992 7.97 4.354.01 7.958-3.616 7.947-7.995z" fill="#339933" opacity="1" data-original="#000000" class=""></path><path d="M73.828 49.443c2.232-.002 4.062 1.829 4.041 4.048-.022 2.224-1.821 4.026-4.016 4.027-2.26 0-4.077-1.786-4.072-3.999.004-2.296 1.769-4.074 4.047-4.076zM24.396 49.407a4.075 4.075 0 0 1 4.096 4.067c.009 2.24-1.829 4.079-4.084 4.084-2.309.005-4.09-1.779-4.088-4.1 0-2.279 1.777-4.048 4.076-4.051z" fill="#339933" opacity="1" data-original="#000000" class=""></path></g></svg>