<?xml version="1.0" encoding="UTF-8"?>
<svg id="Layer_1" xmlns="http://www.w3.org/2000/svg" viewBox="0 0 484.2 486.4">
  <defs>
    <style>
      .cls-1 {
        fill: #25d366;
        fill-rule: evenodd;
      }
    </style>
  </defs>
  <path class="cls-1" d="M413.17,71.19C212.55-123.63-102.2,117.38,34.17,361.66L0,486.4l127.66-33.47c244.23,129.13,478.05-183.81,285.52-381.74ZM242.83,441.58c-38.88.14-76.67-11.54-109.26-32.23l-75.76,19.86,20.22-73.84c-22.72-33.67-35.54-73.17-35.36-114.05-.36-176.89,217.22-267.08,341.74-141.39,125.52,124.62,35.36,342.03-141.58,341.64h0Z"/>
  <path class="cls-1" d="M352.61,291.72c-6.02-3.01-35.6-17.57-41.11-19.57s-9.53-3.01-13.54,3.02c-4.01,6.02-15.53,19.57-19.05,23.58-3.51,4.02-7.02,4.52-13.04,1.51-6.02-3.02-25.4-9.36-48.38-29.86-17.88-15.95-29.96-35.64-33.47-41.67-3.51-6.02-.37-9.28,2.64-12.28,5.24-5.75,11.87-12.98,15.04-20.57,2.01-4.02,1-7.53-.5-10.54s-13.2-32.77-18.55-44.66c-4.51-10.02-9.25-10.22-13.54-10.4-10.15.16-18.01-2.48-27.58,7.39-35.86,34.51-19.42,83.02,3.51,112.41,3.01,4.01,41.63,66.7,102.78,90.82,50.83,20.04,61.17,16.06,72.2,15.05s35.6-14.55,40.61-28.6,5.01-26.09,3.51-28.61c-1.51-2.5-5.52-4-11.54-7.01h0Z"/>
</svg>