<svg id="OBJECT" height="512" viewBox="0 0 512 512" width="512" xmlns="http://www.w3.org/2000/svg"><path d="m457 61h-402a55.06 55.06 0 0 0 -55 55v280a55.06 55.06 0 0 0 55 55h402a55.06 55.06 0 0 0 55-55v-280a55.06 55.06 0 0 0 -55-55zm-427 55a25 25 0 0 1 25-25h402a25 25 0 0 1 25 25v280c0 .67 0 1.32-.09 2l-124-132.24a15 15 0 0 0 -10.91-4.76 15 15 0 0 0 -10.94 4.74l-28.21 30.09-81.75-89.92a15 15 0 0 0 -22.2 0l-173.9 191.26q0-.59 0-1.17zm25 305a25.2 25.2 0 0 1 -5.53-.62l165.53-182.08 72.26 79.49-32.37 34.53a15 15 0 1 0 21.89 20.51l70.22-74.9 114.92 122.58a25 25 0 0 1 -4.92.49z"/><path d="m392 241a60 60 0 1 0 -60-60 60.07 60.07 0 0 0 60 60zm0-90a30 30 0 1 1 -30 30 30 30 0 0 1 30-30z"/></svg>