<svg height="512" viewBox="0 0 46 60" width="512" xmlns="http://www.w3.org/2000/svg"><g id="Layer_2" data-name="Layer 2"><g id="Layer_1-2" data-name="Layer 1"><path id="hourglass" d="m43 54h-2.33v-7.58a15.74 15.74 0 0 0 -7.05-13.14l-4.95-3.28 4.95-3.28a15.74 15.74 0 0 0 7.05-13.14v-7.58h2.33a3 3 0 0 0 0-6h-40a3 3 0 0 0 0 6h2.81v7.58a15.72 15.72 0 0 0 7.05 13.14l4.95 3.28-4.95 3.28a15.72 15.72 0 0 0 -7 13.14v7.58h-2.86a3 3 0 0 0 0 6h40a3 3 0 0 0 0-6zm-31.19-7.58a9.76 9.76 0 0 1 4.36-8.14l7.07-4.68 7.06 4.68a9.77 9.77 0 0 1 4.37 8.14v7.58h-22.86z"/></g></g></svg>