<svg id="Layer_2" viewBox="0 0 512 512" xmlns="http://www.w3.org/2000/svg" data-name="Layer 2"><g id="Icon"><g id="_07" data-name="07"><rect fill="#1673df" height="512" rx="256" width="512"/><path d="m388 130h-264c-25.36 0-46 20.64-46 46v160c0 25.36 20.64 46 46 46h264c25.36 0 46-20.64 46-46v-160c0-25.36-20.64-46-46-46zm0 10c9.94 0 18.94 4.03 25.46 10.54l-132 132c-14.06 14.06-36.85 14.06-50.91 0l-132.01-132c6.51-6.51 15.51-10.54 25.46-10.54zm-300 36c0-6.31 1.63-12.23 4.47-17.38l97.38 97.38-97.38 97.38c-2.85-5.15-4.47-11.08-4.47-17.38zm36 196c-9.94 0-18.94-4.03-25.46-10.54l98.38-98.38 26.54 26.54c8.69 8.69 20.24 13.47 32.53 13.47s23.84-4.79 32.53-13.47l26.54-26.54 98.38 98.38c-6.51 6.51-15.51 10.54-25.46 10.54zm300-36c0 6.31-1.63 12.23-4.47 17.38l-97.38-97.38 97.38-97.38c2.85 5.15 4.47 11.08 4.47 17.38z" fill="#fff"/></g></g></svg>